OpenSim_Sub03_CSBaseline_RCS.mot
version=1
nRows=72
nColumns=11
inDegrees=no
endheader
time	Top_Thigh	Med_Thigh	Bot_Thigh	Top_Shank	2nd_Top_Shank	2nd_Bot_Shank	Bot_Shank	BNOx	BNOy	BNOZ
0	9878.07511779	9964.64321948	10665.70872608	10818.26399421	12055.23092648	12939.32757222	14144.00284212	23.08463196	-81.65952860	174.64132553
0.01000000	9878.47505253	9966.21146519	10668.15481999	10818.73384651	12054.80481745	12940.93628231	14144.00374541	23.04975866	-81.67138078	174.92598331
0.02000000	9878.93017695	9967.61127262	10670.53631356	10819.17242597	12054.43596597	12942.54388551	14144.00434852	23.02452329	-81.68137529	175.18045715
0.03000000	9879.46511127	9968.85810093	10672.77197889	10819.54991337	12054.10168320	12944.00487792	14144.00449178	23.00787210	-81.68893315	175.39988890
0.04000000	9880.10447572	9969.96740927	10674.78058813	10819.83648948	12053.77928025	12945.17375567	14144.00401550	22.99875136	-81.69347537	175.57942042
0.05000000	9880.87289051	9970.95465678	10676.48091339	10820.00233507	12053.44606826	12945.90501488	14144.00276000	22.99610731	-81.69442298	175.71419356
0.06000000	9881.79497588	9971.83530263	10677.79172679	10820.01763090	12053.07935835	12946.05315167	14144.00056560	22.99888620	-81.69119698	175.79935018
0.07000000	9882.88804201	9972.62278776	10678.64436978	10819.85891768	12052.65956266	12945.49905025	14143.99734594	23.00606320	-81.68334533	175.83108907
0.08000000	9884.11537347	9973.31563748	10679.06307877	10819.54974003	12052.19001171	12944.31861927	14143.99355657	23.01682717	-81.67135414	175.81342056
0.09000000	9885.41604035	9973.90569181	10679.11372602	10819.13470985	12051.68430808	12942.67517791	14143.98989590	23.03046276	-81.65612999	175.75385610
0.10000000	9886.72899852	9974.38475925	10678.86238016	10818.65853842	12051.15610284	12940.73245769	14143.98706350	23.04625506	-81.63858146	175.65992364
0.11000000	9887.99320386	9974.74464831	10678.37510985	10818.16593701	12050.61904702	12938.65419009	14143.98575894	23.06348917	-81.61961712	175.53915116
0.12000000	9889.14761225	9974.97716749	10677.71798371	10817.70161690	12050.08679168	12936.60410663	14143.98668179	23.08145017	-81.60014553	175.39906662
0.13000000	9890.13117956	9975.07412529	10676.95707040	10817.31028936	12049.57298787	12934.74593880	14143.99053161	23.09942316	-81.58107528	175.24719798
0.14000000	9890.88286168	9975.02733021	10676.15843855	10817.03666568	12049.09128664	12933.24341811	14143.99800798	23.11669324	-81.56331493	175.09107323
0.15000000	9891.35080473	9974.83158367	10675.38334932	10816.91912765	12048.65495702	12932.24029921	14144.00960281	23.13260044	-81.54768573	174.93769151
0.16000000	9891.55107647	9974.50380656	10674.65753352	10816.94927826	12048.27444470	12931.73269538	14144.02427337	23.14689080	-81.53436352	174.79014387
0.17000000	9891.53018738	9974.07083381	10673.99079712	10817.09775408	12047.95892993	12931.65054657	14144.04028909	23.15949232	-81.52323488	174.64976971
0.18000000	9891.33479151	9973.55954710	10673.39287103	10817.33509280	12047.71758699	12931.92348063	14144.05591617	23.17033388	-81.51418502	174.51790014
0.19000000	9891.01154292	9972.99682812	10672.87348611	10817.63183212	12047.55959017	12932.48112538	14144.06942080	23.17934436	-81.50709916	174.39586632
0.20000000	9890.60709568	9972.40955855	10672.44237323	10817.95850970	12047.49411376	12933.25310864	14144.07906916	23.18645262	-81.50186249	174.28499936
0.21000000	9890.16810385	9971.82462008	10672.10926329	10818.28566324	12047.53033203	12934.16905825	14144.08312744	23.19158753	-81.49836024	174.18663041
0.22000000	9889.74122148	9971.26889440	10671.88388716	10818.58383042	12047.67741927	12935.15860204	14144.07986184	23.19467797	-81.49647761	174.10209060
0.23000000	9889.37310264	9970.76926318	10671.77597571	10818.82354892	12047.94454977	12936.15136784	14144.06753855	23.19565280	-81.49609982	174.03271105
0.24000000	9889.11040138	9970.35260813	10671.79525983	10818.97535643	12048.34089781	12937.07698347	14144.04442375	23.19444091	-81.49711207	173.97982290
0.25000000	9888.99977177	9970.04581091	10671.95147040	10819.00979064	12048.87563767	12937.86507677	14144.00878364	23.19097115	-81.49939957	173.94475728
0.26000000	9889.07839365	9969.87143535	10672.24937571	10818.90260414	12049.55524815	12938.45572049	14143.95964703	23.18532898	-81.50277998	173.92774746
0.27000000	9889.31342646	9969.82013340	10672.65706755	10818.66809107	12050.36628669	12938.86618189	14143.90167912	23.17875699	-81.50657163	173.92091275
0.28000000	9889.64064631	9969.86825407	10673.12619919	10818.33781998	12051.28638192	12939.14832705	14143.84207131	23.17301641	-81.50986906	173.91273577
0.29000000	9889.99568126	9969.99207888	10673.60834635	10817.94344089	12052.29312034	12939.35418525	14143.78802693	23.16987092	-81.51176575	173.89168199
0.30000000	9890.31415938	9970.16788937	10674.05508474	10817.51660386	12053.36408846	12939.53578576	14143.74674930	23.17108421	-81.51135519	173.84621688
0.31000000	9890.53170873	9970.37196705	10674.41799009	10817.08895890	12054.47687281	12939.74515788	14143.72544176	23.17841995	-81.50773086	173.76480591
0.32000000	9890.58395737	9970.58059346	10674.64863811	10816.69215605	12055.60905988	12940.03433087	14143.73130763	23.19364183	-81.49998625	173.63591453
0.33000000	9890.40653338	9970.77005013	10674.69860454	10816.35784535	12056.73823619	12940.45533401	14143.77155024	23.21851353	-81.48721484	173.44800822
0.34000000	9889.93506481	9970.91661859	10674.51946508	10816.11767683	12057.84198825	12941.06019658	14143.85337291	23.25479873	-81.46851011	173.18955245
0.35000000	9889.10517974	9970.99658035	10674.06279546	10816.00330053	12058.89790256	12941.90094787	14143.98397898	23.30426112	-81.44296555	172.84901268
0.36000000	9887.88261299	9970.99489421	10673.30028049	10816.03723940	12059.88493747	12943.00165381	14144.16656985	23.36782839	-81.41014284	172.42035679
0.37000000	9886.39594032	9970.94345228	10672.31237069	10816.19265002	12060.78947117	12944.23513294	14144.38270142	23.44190672	-81.37213608	171.92731404
0.38000000	9884.82854090	9970.88994191	10671.21612116	10816.42607493	12061.60037899	12945.42330206	14144.60664491	23.52138055	-81.33189163	171.40362972
0.39000000	9883.36383517	9970.88206232	10670.12861463	10816.69404416	12062.30653815	12946.38803965	14144.81266604	23.60113317	-81.29235649	170.88305670
0.40000000	9882.18524361	9970.96751277	10669.16693380	10816.95308773	12062.89682584	12946.95122416	14144.97503052	23.67604788	-81.25647767	170.39934783
0.41000000	9881.45519119	9971.18668612	10668.43445343	10817.16382983	12063.36230975	12946.97016247	14145.07098567	23.74156484	-81.22686164	169.98248234
0.42000000	9881.18093318	9971.52597653	10667.93323783	10817.31715333	12063.71024643	12946.56399944	14145.09981476	23.79723984	-81.20359817	169.63455007
0.43000000	9881.30017729	9971.94757580	10667.61994369	10817.41750305	12063.95514834	12945.96923656	14145.07067760	23.84447327	-81.18564901	169.34514077
0.44000000	9881.75030320	9972.41356156	10667.45101353	10817.46938782	12064.11156216	12945.42292883	14144.99278062	23.88467423	-81.17197061	169.10378521
0.45000000	9882.46869058	9972.88601143	10667.38288985	10817.47731645	12064.19403459	12945.16213128	14144.87533021	23.91925182	-81.16151939	168.90001416
0.46000000	9883.39271911	9973.32700306	10667.37201515	10817.44579775	12064.21711231	12945.42389895	14144.72753280	23.94961515	-81.15325181	168.72335840
0.47000000	9884.45976845	9973.69861406	10667.37483194	10817.37934055	12064.19534201	12946.44528687	14144.55859480	23.97717331	-81.14612429	168.56334869
0.48000000	9885.60721829	9973.96292207	10667.34778272	10817.28245366	12064.14327037	12948.46335004	14144.37772261	24.00333540	-81.13909328	168.40951581
0.49000000	9886.77244828	9974.08200472	10667.24731000	10817.15964589	12064.07544407	12951.71514352	14144.19412266	24.02951053	-81.13111521	168.25139054
0.50000000	9887.89283811	9974.01793964	10667.02985629	10817.01542606	12064.00640982	12956.43772231	14144.01700136	24.05710781	-81.12114653	168.07850364
0.51000000	9888.91350718	9973.74416139	10666.66249776	10816.85484701	12063.94898541	12962.79400877	14143.85557926	24.08725132	-81.10837620	167.88251023
0.52000000	9889.82143743	9973.29553157	10666.16982579	10816.68590408	12063.90663758	12970.54595795	14143.71915346	24.11952369	-81.09325093	167.66655541
0.53000000	9890.61769945	9972.72758483	10665.59578827	10816.51758289	12063.87968598	12979.32058106	14143.61704681	24.15298876	-81.07664070	167.43765122
0.54000000	9891.30337445	9972.09587140	10664.98434764	10816.35886982	12063.86844789	12988.74478759	14143.55858218	24.18670997	-81.05941580	167.20281261
0.55000000	9891.87954365	9971.45594149	10664.37946637	10816.21875124	12063.87324061	12998.44548708	14143.55308242	24.21975077	-81.04244653	166.96905454
0.56000000	9892.34728825	9970.86334532	10663.82510693	10816.10621352	12063.89438141	13008.04958901	14143.60987042	24.25117461	-81.02660320	166.74339194
0.57000000	9892.70768947	9970.37363311	10663.36523178	10816.03024303	12063.93218758	13017.18400292	14143.73826904	24.28004493	-81.01275610	166.53283978
0.58000000	9892.96182851	9970.04235508	10663.04380337	10815.99982614	12063.98697640	13025.47563831	14143.94760115	24.30542518	-81.00177554	166.34441300
0.59000000	9893.11314333	9969.91550037	10662.89781469	10816.02222869	12064.05912045	13032.59425368	14144.24425685	24.32654432	-80.99440246	166.18414778
0.60000000	9893.18248974	9969.96839564	10662.91274980	10816.09200055	12064.14940102	13038.52628844	14144.61295134	24.34385464	-80.99042186	166.05084670
0.61000000	9893.19853026	9970.14469646	10663.05100633	10816.19799231	12064.25878256	13043.40011929	14145.02868506	24.35835672	-80.98919026	165.94007016
0.62000000	9893.18996427	9970.38790901	10663.27487303	10816.32902765	12064.38823038	13047.34479244	14145.46641262	24.37105371	-80.99006217	165.84736330
0.63000000	9893.18549111	9970.64153945	10663.54663863	10816.47393027	12064.53870982	13050.48935411	14145.90108862	24.38294878	-80.99239209	165.76827124
0.64000000	9893.21381014	9970.84909395	10663.82859187	10816.62152387	12064.71118618	13052.96285052	14146.30766768	24.39504508	-80.99553452	165.69833911
0.65000000	9893.30362073	9970.95407869	10664.08302148	10816.76063213	12064.90662479	13054.89432790	14146.66110440	24.40834577	-80.99884398	165.63311204
0.66000000	9893.48362222	9970.89999983	10664.27221619	10816.88007874	12065.12599096	13056.41283245	14146.93635340	24.42385402	-81.00167495	165.56813515
0.67000000	9893.78251397	9970.63036355	10664.35846475	10816.96868740	12065.37025002	13057.64741040	14147.10836929	24.44257298	-81.00338196	165.49895358
0.68000000	9894.22899535	9970.08867601	10664.30405589	10817.01528179	12065.64036728	13058.72710796	14147.15210667	24.46550582	-81.00331950	165.42111244
0.69000000	9894.85176571	9969.21844339	10664.07127834	10817.00868562	12065.93730807	13059.78097135	14147.04252016	24.49365570	-81.00084208	165.33015687
0.70000000	9895.66588422	9967.98087564	10663.62881576	10816.94014190	12066.26359833	13060.92716723	14146.76134118	24.52783000	-80.99543366	165.22226663
0.71000000	9896.58560056	9966.46802480	10662.99261414	10816.81877400	12066.63329804	13062.20345546	14146.34038600	24.56738918	-80.98753488	165.09831177
